G04 #@! TF.GenerationSoftware,KiCad,Pcbnew,5.1.10-88a1d61d58~90~ubuntu20.04.1*
G04 #@! TF.CreationDate,2021-09-05T17:22:48+01:00*
G04 #@! TF.ProjectId,hl2_extpamon,686c325f-6578-4747-9061-6d6f6e2e6b69,1*
G04 #@! TF.SameCoordinates,PX59a5380PY35d55f4*
G04 #@! TF.FileFunction,Paste,Top*
G04 #@! TF.FilePolarity,Positive*
%FSLAX46Y46*%
G04 Gerber Fmt 4.6, Leading zero omitted, Abs format (unit mm)*
G04 Created by KiCad (PCBNEW 5.1.10-88a1d61d58~90~ubuntu20.04.1) date 2021-09-05 17:22:48*
%MOMM*%
%LPD*%
G01*
G04 APERTURE LIST*
%ADD10R,1.060000X0.650000*%
%ADD11R,0.900000X0.800000*%
%ADD12R,0.800000X0.900000*%
%ADD13R,5.250000X4.550000*%
%ADD14R,1.100000X4.600000*%
%ADD15R,1.200000X0.900000*%
G04 APERTURE END LIST*
G36*
G01*
X31170600Y-34524799D02*
X31170600Y-37255601D01*
G75*
G02*
X30936001Y-37490200I-234599J0D01*
G01*
X30255199Y-37490200D01*
G75*
G02*
X30020600Y-37255601I0J234599D01*
G01*
X30020600Y-34524799D01*
G75*
G02*
X30255199Y-34290200I234599J0D01*
G01*
X30936001Y-34290200D01*
G75*
G02*
X31170600Y-34524799I0J-234599D01*
G01*
G37*
G36*
G01*
X32920600Y-34524799D02*
X32920600Y-37255601D01*
G75*
G02*
X32686001Y-37490200I-234599J0D01*
G01*
X32005199Y-37490200D01*
G75*
G02*
X31770600Y-37255601I0J234599D01*
G01*
X31770600Y-34524799D01*
G75*
G02*
X32005199Y-34290200I234599J0D01*
G01*
X32686001Y-34290200D01*
G75*
G02*
X32920600Y-34524799I0J-234599D01*
G01*
G37*
G36*
G01*
X33037100Y-8101200D02*
X32737100Y-8101200D01*
G75*
G02*
X32587100Y-7951200I0J150000D01*
G01*
X32587100Y-6301200D01*
G75*
G02*
X32737100Y-6151200I150000J0D01*
G01*
X33037100Y-6151200D01*
G75*
G02*
X33187100Y-6301200I0J-150000D01*
G01*
X33187100Y-7951200D01*
G75*
G02*
X33037100Y-8101200I-150000J0D01*
G01*
G37*
G36*
G01*
X34307100Y-8101200D02*
X34007100Y-8101200D01*
G75*
G02*
X33857100Y-7951200I0J150000D01*
G01*
X33857100Y-6301200D01*
G75*
G02*
X34007100Y-6151200I150000J0D01*
G01*
X34307100Y-6151200D01*
G75*
G02*
X34457100Y-6301200I0J-150000D01*
G01*
X34457100Y-7951200D01*
G75*
G02*
X34307100Y-8101200I-150000J0D01*
G01*
G37*
G36*
G01*
X35577100Y-8101200D02*
X35277100Y-8101200D01*
G75*
G02*
X35127100Y-7951200I0J150000D01*
G01*
X35127100Y-6301200D01*
G75*
G02*
X35277100Y-6151200I150000J0D01*
G01*
X35577100Y-6151200D01*
G75*
G02*
X35727100Y-6301200I0J-150000D01*
G01*
X35727100Y-7951200D01*
G75*
G02*
X35577100Y-8101200I-150000J0D01*
G01*
G37*
G36*
G01*
X36847100Y-8101200D02*
X36547100Y-8101200D01*
G75*
G02*
X36397100Y-7951200I0J150000D01*
G01*
X36397100Y-6301200D01*
G75*
G02*
X36547100Y-6151200I150000J0D01*
G01*
X36847100Y-6151200D01*
G75*
G02*
X36997100Y-6301200I0J-150000D01*
G01*
X36997100Y-7951200D01*
G75*
G02*
X36847100Y-8101200I-150000J0D01*
G01*
G37*
G36*
G01*
X38117100Y-8101200D02*
X37817100Y-8101200D01*
G75*
G02*
X37667100Y-7951200I0J150000D01*
G01*
X37667100Y-6301200D01*
G75*
G02*
X37817100Y-6151200I150000J0D01*
G01*
X38117100Y-6151200D01*
G75*
G02*
X38267100Y-6301200I0J-150000D01*
G01*
X38267100Y-7951200D01*
G75*
G02*
X38117100Y-8101200I-150000J0D01*
G01*
G37*
G36*
G01*
X39387100Y-8101200D02*
X39087100Y-8101200D01*
G75*
G02*
X38937100Y-7951200I0J150000D01*
G01*
X38937100Y-6301200D01*
G75*
G02*
X39087100Y-6151200I150000J0D01*
G01*
X39387100Y-6151200D01*
G75*
G02*
X39537100Y-6301200I0J-150000D01*
G01*
X39537100Y-7951200D01*
G75*
G02*
X39387100Y-8101200I-150000J0D01*
G01*
G37*
G36*
G01*
X40657100Y-8101200D02*
X40357100Y-8101200D01*
G75*
G02*
X40207100Y-7951200I0J150000D01*
G01*
X40207100Y-6301200D01*
G75*
G02*
X40357100Y-6151200I150000J0D01*
G01*
X40657100Y-6151200D01*
G75*
G02*
X40807100Y-6301200I0J-150000D01*
G01*
X40807100Y-7951200D01*
G75*
G02*
X40657100Y-8101200I-150000J0D01*
G01*
G37*
G36*
G01*
X40657100Y-13051200D02*
X40357100Y-13051200D01*
G75*
G02*
X40207100Y-12901200I0J150000D01*
G01*
X40207100Y-11251200D01*
G75*
G02*
X40357100Y-11101200I150000J0D01*
G01*
X40657100Y-11101200D01*
G75*
G02*
X40807100Y-11251200I0J-150000D01*
G01*
X40807100Y-12901200D01*
G75*
G02*
X40657100Y-13051200I-150000J0D01*
G01*
G37*
G36*
G01*
X39387100Y-13051200D02*
X39087100Y-13051200D01*
G75*
G02*
X38937100Y-12901200I0J150000D01*
G01*
X38937100Y-11251200D01*
G75*
G02*
X39087100Y-11101200I150000J0D01*
G01*
X39387100Y-11101200D01*
G75*
G02*
X39537100Y-11251200I0J-150000D01*
G01*
X39537100Y-12901200D01*
G75*
G02*
X39387100Y-13051200I-150000J0D01*
G01*
G37*
G36*
G01*
X38117100Y-13051200D02*
X37817100Y-13051200D01*
G75*
G02*
X37667100Y-12901200I0J150000D01*
G01*
X37667100Y-11251200D01*
G75*
G02*
X37817100Y-11101200I150000J0D01*
G01*
X38117100Y-11101200D01*
G75*
G02*
X38267100Y-11251200I0J-150000D01*
G01*
X38267100Y-12901200D01*
G75*
G02*
X38117100Y-13051200I-150000J0D01*
G01*
G37*
G36*
G01*
X36847100Y-13051200D02*
X36547100Y-13051200D01*
G75*
G02*
X36397100Y-12901200I0J150000D01*
G01*
X36397100Y-11251200D01*
G75*
G02*
X36547100Y-11101200I150000J0D01*
G01*
X36847100Y-11101200D01*
G75*
G02*
X36997100Y-11251200I0J-150000D01*
G01*
X36997100Y-12901200D01*
G75*
G02*
X36847100Y-13051200I-150000J0D01*
G01*
G37*
G36*
G01*
X35577100Y-13051200D02*
X35277100Y-13051200D01*
G75*
G02*
X35127100Y-12901200I0J150000D01*
G01*
X35127100Y-11251200D01*
G75*
G02*
X35277100Y-11101200I150000J0D01*
G01*
X35577100Y-11101200D01*
G75*
G02*
X35727100Y-11251200I0J-150000D01*
G01*
X35727100Y-12901200D01*
G75*
G02*
X35577100Y-13051200I-150000J0D01*
G01*
G37*
G36*
G01*
X34307100Y-13051200D02*
X34007100Y-13051200D01*
G75*
G02*
X33857100Y-12901200I0J150000D01*
G01*
X33857100Y-11251200D01*
G75*
G02*
X34007100Y-11101200I150000J0D01*
G01*
X34307100Y-11101200D01*
G75*
G02*
X34457100Y-11251200I0J-150000D01*
G01*
X34457100Y-12901200D01*
G75*
G02*
X34307100Y-13051200I-150000J0D01*
G01*
G37*
G36*
G01*
X33037100Y-13051200D02*
X32737100Y-13051200D01*
G75*
G02*
X32587100Y-12901200I0J150000D01*
G01*
X32587100Y-11251200D01*
G75*
G02*
X32737100Y-11101200I150000J0D01*
G01*
X33037100Y-11101200D01*
G75*
G02*
X33187100Y-11251200I0J-150000D01*
G01*
X33187100Y-12901200D01*
G75*
G02*
X33037100Y-13051200I-150000J0D01*
G01*
G37*
G36*
G01*
X46150500Y-16714500D02*
X46150500Y-16514500D01*
G75*
G02*
X46250500Y-16414500I100000J0D01*
G01*
X47675500Y-16414500D01*
G75*
G02*
X47775500Y-16514500I0J-100000D01*
G01*
X47775500Y-16714500D01*
G75*
G02*
X47675500Y-16814500I-100000J0D01*
G01*
X46250500Y-16814500D01*
G75*
G02*
X46150500Y-16714500I0J100000D01*
G01*
G37*
G36*
G01*
X46150500Y-17364500D02*
X46150500Y-17164500D01*
G75*
G02*
X46250500Y-17064500I100000J0D01*
G01*
X47675500Y-17064500D01*
G75*
G02*
X47775500Y-17164500I0J-100000D01*
G01*
X47775500Y-17364500D01*
G75*
G02*
X47675500Y-17464500I-100000J0D01*
G01*
X46250500Y-17464500D01*
G75*
G02*
X46150500Y-17364500I0J100000D01*
G01*
G37*
G36*
G01*
X46150500Y-18014500D02*
X46150500Y-17814500D01*
G75*
G02*
X46250500Y-17714500I100000J0D01*
G01*
X47675500Y-17714500D01*
G75*
G02*
X47775500Y-17814500I0J-100000D01*
G01*
X47775500Y-18014500D01*
G75*
G02*
X47675500Y-18114500I-100000J0D01*
G01*
X46250500Y-18114500D01*
G75*
G02*
X46150500Y-18014500I0J100000D01*
G01*
G37*
G36*
G01*
X46150500Y-18664500D02*
X46150500Y-18464500D01*
G75*
G02*
X46250500Y-18364500I100000J0D01*
G01*
X47675500Y-18364500D01*
G75*
G02*
X47775500Y-18464500I0J-100000D01*
G01*
X47775500Y-18664500D01*
G75*
G02*
X47675500Y-18764500I-100000J0D01*
G01*
X46250500Y-18764500D01*
G75*
G02*
X46150500Y-18664500I0J100000D01*
G01*
G37*
G36*
G01*
X41925500Y-18664500D02*
X41925500Y-18464500D01*
G75*
G02*
X42025500Y-18364500I100000J0D01*
G01*
X43450500Y-18364500D01*
G75*
G02*
X43550500Y-18464500I0J-100000D01*
G01*
X43550500Y-18664500D01*
G75*
G02*
X43450500Y-18764500I-100000J0D01*
G01*
X42025500Y-18764500D01*
G75*
G02*
X41925500Y-18664500I0J100000D01*
G01*
G37*
G36*
G01*
X41925500Y-18014500D02*
X41925500Y-17814500D01*
G75*
G02*
X42025500Y-17714500I100000J0D01*
G01*
X43450500Y-17714500D01*
G75*
G02*
X43550500Y-17814500I0J-100000D01*
G01*
X43550500Y-18014500D01*
G75*
G02*
X43450500Y-18114500I-100000J0D01*
G01*
X42025500Y-18114500D01*
G75*
G02*
X41925500Y-18014500I0J100000D01*
G01*
G37*
G36*
G01*
X41925500Y-17364500D02*
X41925500Y-17164500D01*
G75*
G02*
X42025500Y-17064500I100000J0D01*
G01*
X43450500Y-17064500D01*
G75*
G02*
X43550500Y-17164500I0J-100000D01*
G01*
X43550500Y-17364500D01*
G75*
G02*
X43450500Y-17464500I-100000J0D01*
G01*
X42025500Y-17464500D01*
G75*
G02*
X41925500Y-17364500I0J100000D01*
G01*
G37*
G36*
G01*
X41925500Y-16714500D02*
X41925500Y-16514500D01*
G75*
G02*
X42025500Y-16414500I100000J0D01*
G01*
X43450500Y-16414500D01*
G75*
G02*
X43550500Y-16514500I0J-100000D01*
G01*
X43550500Y-16714500D01*
G75*
G02*
X43450500Y-16814500I-100000J0D01*
G01*
X42025500Y-16814500D01*
G75*
G02*
X41925500Y-16714500I0J100000D01*
G01*
G37*
G36*
G01*
X32953000Y-30527000D02*
X33428000Y-30527000D01*
G75*
G02*
X33665500Y-30764500I0J-237500D01*
G01*
X33665500Y-31264500D01*
G75*
G02*
X33428000Y-31502000I-237500J0D01*
G01*
X32953000Y-31502000D01*
G75*
G02*
X32715500Y-31264500I0J237500D01*
G01*
X32715500Y-30764500D01*
G75*
G02*
X32953000Y-30527000I237500J0D01*
G01*
G37*
G36*
G01*
X32953000Y-28702000D02*
X33428000Y-28702000D01*
G75*
G02*
X33665500Y-28939500I0J-237500D01*
G01*
X33665500Y-29439500D01*
G75*
G02*
X33428000Y-29677000I-237500J0D01*
G01*
X32953000Y-29677000D01*
G75*
G02*
X32715500Y-29439500I0J237500D01*
G01*
X32715500Y-28939500D01*
G75*
G02*
X32953000Y-28702000I237500J0D01*
G01*
G37*
G36*
G01*
X16165700Y-50850000D02*
X16165700Y-50375000D01*
G75*
G02*
X16403200Y-50137500I237500J0D01*
G01*
X16903200Y-50137500D01*
G75*
G02*
X17140700Y-50375000I0J-237500D01*
G01*
X17140700Y-50850000D01*
G75*
G02*
X16903200Y-51087500I-237500J0D01*
G01*
X16403200Y-51087500D01*
G75*
G02*
X16165700Y-50850000I0J237500D01*
G01*
G37*
G36*
G01*
X14340700Y-50850000D02*
X14340700Y-50375000D01*
G75*
G02*
X14578200Y-50137500I237500J0D01*
G01*
X15078200Y-50137500D01*
G75*
G02*
X15315700Y-50375000I0J-237500D01*
G01*
X15315700Y-50850000D01*
G75*
G02*
X15078200Y-51087500I-237500J0D01*
G01*
X14578200Y-51087500D01*
G75*
G02*
X14340700Y-50850000I0J237500D01*
G01*
G37*
G36*
G01*
X19942000Y-17456600D02*
X19467000Y-17456600D01*
G75*
G02*
X19229500Y-17219100I0J237500D01*
G01*
X19229500Y-16719100D01*
G75*
G02*
X19467000Y-16481600I237500J0D01*
G01*
X19942000Y-16481600D01*
G75*
G02*
X20179500Y-16719100I0J-237500D01*
G01*
X20179500Y-17219100D01*
G75*
G02*
X19942000Y-17456600I-237500J0D01*
G01*
G37*
G36*
G01*
X19942000Y-19281600D02*
X19467000Y-19281600D01*
G75*
G02*
X19229500Y-19044100I0J237500D01*
G01*
X19229500Y-18544100D01*
G75*
G02*
X19467000Y-18306600I237500J0D01*
G01*
X19942000Y-18306600D01*
G75*
G02*
X20179500Y-18544100I0J-237500D01*
G01*
X20179500Y-19044100D01*
G75*
G02*
X19942000Y-19281600I-237500J0D01*
G01*
G37*
G36*
G01*
X17562000Y-18306600D02*
X18037000Y-18306600D01*
G75*
G02*
X18274500Y-18544100I0J-237500D01*
G01*
X18274500Y-19044100D01*
G75*
G02*
X18037000Y-19281600I-237500J0D01*
G01*
X17562000Y-19281600D01*
G75*
G02*
X17324500Y-19044100I0J237500D01*
G01*
X17324500Y-18544100D01*
G75*
G02*
X17562000Y-18306600I237500J0D01*
G01*
G37*
G36*
G01*
X17562000Y-16481600D02*
X18037000Y-16481600D01*
G75*
G02*
X18274500Y-16719100I0J-237500D01*
G01*
X18274500Y-17219100D01*
G75*
G02*
X18037000Y-17456600I-237500J0D01*
G01*
X17562000Y-17456600D01*
G75*
G02*
X17324500Y-17219100I0J237500D01*
G01*
X17324500Y-16719100D01*
G75*
G02*
X17562000Y-16481600I237500J0D01*
G01*
G37*
G36*
G01*
X29841500Y-30527000D02*
X30316500Y-30527000D01*
G75*
G02*
X30554000Y-30764500I0J-237500D01*
G01*
X30554000Y-31264500D01*
G75*
G02*
X30316500Y-31502000I-237500J0D01*
G01*
X29841500Y-31502000D01*
G75*
G02*
X29604000Y-31264500I0J237500D01*
G01*
X29604000Y-30764500D01*
G75*
G02*
X29841500Y-30527000I237500J0D01*
G01*
G37*
G36*
G01*
X29841500Y-28702000D02*
X30316500Y-28702000D01*
G75*
G02*
X30554000Y-28939500I0J-237500D01*
G01*
X30554000Y-29439500D01*
G75*
G02*
X30316500Y-29677000I-237500J0D01*
G01*
X29841500Y-29677000D01*
G75*
G02*
X29604000Y-29439500I0J237500D01*
G01*
X29604000Y-28939500D01*
G75*
G02*
X29841500Y-28702000I237500J0D01*
G01*
G37*
G36*
G01*
X50838100Y-18804900D02*
X50838100Y-18329900D01*
G75*
G02*
X51075600Y-18092400I237500J0D01*
G01*
X51575600Y-18092400D01*
G75*
G02*
X51813100Y-18329900I0J-237500D01*
G01*
X51813100Y-18804900D01*
G75*
G02*
X51575600Y-19042400I-237500J0D01*
G01*
X51075600Y-19042400D01*
G75*
G02*
X50838100Y-18804900I0J237500D01*
G01*
G37*
G36*
G01*
X49013100Y-18804900D02*
X49013100Y-18329900D01*
G75*
G02*
X49250600Y-18092400I237500J0D01*
G01*
X49750600Y-18092400D01*
G75*
G02*
X49988100Y-18329900I0J-237500D01*
G01*
X49988100Y-18804900D01*
G75*
G02*
X49750600Y-19042400I-237500J0D01*
G01*
X49250600Y-19042400D01*
G75*
G02*
X49013100Y-18804900I0J237500D01*
G01*
G37*
G36*
G01*
X36985200Y-18609300D02*
X36985200Y-19084300D01*
G75*
G02*
X36747700Y-19321800I-237500J0D01*
G01*
X36247700Y-19321800D01*
G75*
G02*
X36010200Y-19084300I0J237500D01*
G01*
X36010200Y-18609300D01*
G75*
G02*
X36247700Y-18371800I237500J0D01*
G01*
X36747700Y-18371800D01*
G75*
G02*
X36985200Y-18609300I0J-237500D01*
G01*
G37*
G36*
G01*
X38810200Y-18609300D02*
X38810200Y-19084300D01*
G75*
G02*
X38572700Y-19321800I-237500J0D01*
G01*
X38072700Y-19321800D01*
G75*
G02*
X37835200Y-19084300I0J237500D01*
G01*
X37835200Y-18609300D01*
G75*
G02*
X38072700Y-18371800I237500J0D01*
G01*
X38572700Y-18371800D01*
G75*
G02*
X38810200Y-18609300I0J-237500D01*
G01*
G37*
G36*
G01*
X54902100Y-18804900D02*
X54902100Y-18329900D01*
G75*
G02*
X55139600Y-18092400I237500J0D01*
G01*
X55639600Y-18092400D01*
G75*
G02*
X55877100Y-18329900I0J-237500D01*
G01*
X55877100Y-18804900D01*
G75*
G02*
X55639600Y-19042400I-237500J0D01*
G01*
X55139600Y-19042400D01*
G75*
G02*
X54902100Y-18804900I0J237500D01*
G01*
G37*
G36*
G01*
X53077100Y-18804900D02*
X53077100Y-18329900D01*
G75*
G02*
X53314600Y-18092400I237500J0D01*
G01*
X53814600Y-18092400D01*
G75*
G02*
X54052100Y-18329900I0J-237500D01*
G01*
X54052100Y-18804900D01*
G75*
G02*
X53814600Y-19042400I-237500J0D01*
G01*
X53314600Y-19042400D01*
G75*
G02*
X53077100Y-18804900I0J237500D01*
G01*
G37*
G36*
G01*
X33147900Y-18609300D02*
X33147900Y-19084300D01*
G75*
G02*
X32910400Y-19321800I-237500J0D01*
G01*
X32410400Y-19321800D01*
G75*
G02*
X32172900Y-19084300I0J237500D01*
G01*
X32172900Y-18609300D01*
G75*
G02*
X32410400Y-18371800I237500J0D01*
G01*
X32910400Y-18371800D01*
G75*
G02*
X33147900Y-18609300I0J-237500D01*
G01*
G37*
G36*
G01*
X34972900Y-18609300D02*
X34972900Y-19084300D01*
G75*
G02*
X34735400Y-19321800I-237500J0D01*
G01*
X34235400Y-19321800D01*
G75*
G02*
X33997900Y-19084300I0J237500D01*
G01*
X33997900Y-18609300D01*
G75*
G02*
X34235400Y-18371800I237500J0D01*
G01*
X34735400Y-18371800D01*
G75*
G02*
X34972900Y-18609300I0J-237500D01*
G01*
G37*
G36*
G01*
X17739800Y-8426000D02*
X18214800Y-8426000D01*
G75*
G02*
X18452300Y-8663500I0J-237500D01*
G01*
X18452300Y-9163500D01*
G75*
G02*
X18214800Y-9401000I-237500J0D01*
G01*
X17739800Y-9401000D01*
G75*
G02*
X17502300Y-9163500I0J237500D01*
G01*
X17502300Y-8663500D01*
G75*
G02*
X17739800Y-8426000I237500J0D01*
G01*
G37*
G36*
G01*
X17739800Y-6601000D02*
X18214800Y-6601000D01*
G75*
G02*
X18452300Y-6838500I0J-237500D01*
G01*
X18452300Y-7338500D01*
G75*
G02*
X18214800Y-7576000I-237500J0D01*
G01*
X17739800Y-7576000D01*
G75*
G02*
X17502300Y-7338500I0J237500D01*
G01*
X17502300Y-6838500D01*
G75*
G02*
X17739800Y-6601000I237500J0D01*
G01*
G37*
G36*
G01*
X20069000Y-7677600D02*
X19594000Y-7677600D01*
G75*
G02*
X19356500Y-7440100I0J237500D01*
G01*
X19356500Y-6940100D01*
G75*
G02*
X19594000Y-6702600I237500J0D01*
G01*
X20069000Y-6702600D01*
G75*
G02*
X20306500Y-6940100I0J-237500D01*
G01*
X20306500Y-7440100D01*
G75*
G02*
X20069000Y-7677600I-237500J0D01*
G01*
G37*
G36*
G01*
X20069000Y-9502600D02*
X19594000Y-9502600D01*
G75*
G02*
X19356500Y-9265100I0J237500D01*
G01*
X19356500Y-8765100D01*
G75*
G02*
X19594000Y-8527600I237500J0D01*
G01*
X20069000Y-8527600D01*
G75*
G02*
X20306500Y-8765100I0J-237500D01*
G01*
X20306500Y-9265100D01*
G75*
G02*
X20069000Y-9502600I-237500J0D01*
G01*
G37*
G36*
G01*
X15503200Y-44179500D02*
X15978200Y-44179500D01*
G75*
G02*
X16215700Y-44417000I0J-237500D01*
G01*
X16215700Y-44917000D01*
G75*
G02*
X15978200Y-45154500I-237500J0D01*
G01*
X15503200Y-45154500D01*
G75*
G02*
X15265700Y-44917000I0J237500D01*
G01*
X15265700Y-44417000D01*
G75*
G02*
X15503200Y-44179500I237500J0D01*
G01*
G37*
G36*
G01*
X15503200Y-42354500D02*
X15978200Y-42354500D01*
G75*
G02*
X16215700Y-42592000I0J-237500D01*
G01*
X16215700Y-43092000D01*
G75*
G02*
X15978200Y-43329500I-237500J0D01*
G01*
X15503200Y-43329500D01*
G75*
G02*
X15265700Y-43092000I0J237500D01*
G01*
X15265700Y-42592000D01*
G75*
G02*
X15503200Y-42354500I237500J0D01*
G01*
G37*
G36*
G01*
X17598700Y-42338000D02*
X18073700Y-42338000D01*
G75*
G02*
X18311200Y-42575500I0J-237500D01*
G01*
X18311200Y-43075500D01*
G75*
G02*
X18073700Y-43313000I-237500J0D01*
G01*
X17598700Y-43313000D01*
G75*
G02*
X17361200Y-43075500I0J237500D01*
G01*
X17361200Y-42575500D01*
G75*
G02*
X17598700Y-42338000I237500J0D01*
G01*
G37*
G36*
G01*
X17598700Y-40513000D02*
X18073700Y-40513000D01*
G75*
G02*
X18311200Y-40750500I0J-237500D01*
G01*
X18311200Y-41250500D01*
G75*
G02*
X18073700Y-41488000I-237500J0D01*
G01*
X17598700Y-41488000D01*
G75*
G02*
X17361200Y-41250500I0J237500D01*
G01*
X17361200Y-40750500D01*
G75*
G02*
X17598700Y-40513000I237500J0D01*
G01*
G37*
G36*
G01*
X11669200Y-17368400D02*
X12144200Y-17368400D01*
G75*
G02*
X12381700Y-17605900I0J-237500D01*
G01*
X12381700Y-18205900D01*
G75*
G02*
X12144200Y-18443400I-237500J0D01*
G01*
X11669200Y-18443400D01*
G75*
G02*
X11431700Y-18205900I0J237500D01*
G01*
X11431700Y-17605900D01*
G75*
G02*
X11669200Y-17368400I237500J0D01*
G01*
G37*
G36*
G01*
X11669200Y-15643400D02*
X12144200Y-15643400D01*
G75*
G02*
X12381700Y-15880900I0J-237500D01*
G01*
X12381700Y-16480900D01*
G75*
G02*
X12144200Y-16718400I-237500J0D01*
G01*
X11669200Y-16718400D01*
G75*
G02*
X11431700Y-16480900I0J237500D01*
G01*
X11431700Y-15880900D01*
G75*
G02*
X11669200Y-15643400I237500J0D01*
G01*
G37*
G36*
G01*
X16414700Y-20514300D02*
X16414700Y-20989300D01*
G75*
G02*
X16177200Y-21226800I-237500J0D01*
G01*
X15577200Y-21226800D01*
G75*
G02*
X15339700Y-20989300I0J237500D01*
G01*
X15339700Y-20514300D01*
G75*
G02*
X15577200Y-20276800I237500J0D01*
G01*
X16177200Y-20276800D01*
G75*
G02*
X16414700Y-20514300I0J-237500D01*
G01*
G37*
G36*
G01*
X18139700Y-20514300D02*
X18139700Y-20989300D01*
G75*
G02*
X17902200Y-21226800I-237500J0D01*
G01*
X17302200Y-21226800D01*
G75*
G02*
X17064700Y-20989300I0J237500D01*
G01*
X17064700Y-20514300D01*
G75*
G02*
X17302200Y-20276800I237500J0D01*
G01*
X17902200Y-20276800D01*
G75*
G02*
X18139700Y-20514300I0J-237500D01*
G01*
G37*
G36*
G01*
X31991500Y-27672500D02*
X31991500Y-27197500D01*
G75*
G02*
X32229000Y-26960000I237500J0D01*
G01*
X32829000Y-26960000D01*
G75*
G02*
X33066500Y-27197500I0J-237500D01*
G01*
X33066500Y-27672500D01*
G75*
G02*
X32829000Y-27910000I-237500J0D01*
G01*
X32229000Y-27910000D01*
G75*
G02*
X31991500Y-27672500I0J237500D01*
G01*
G37*
G36*
G01*
X30266500Y-27672500D02*
X30266500Y-27197500D01*
G75*
G02*
X30504000Y-26960000I237500J0D01*
G01*
X31104000Y-26960000D01*
G75*
G02*
X31341500Y-27197500I0J-237500D01*
G01*
X31341500Y-27672500D01*
G75*
G02*
X31104000Y-27910000I-237500J0D01*
G01*
X30504000Y-27910000D01*
G75*
G02*
X30266500Y-27672500I0J237500D01*
G01*
G37*
G36*
G01*
X35904500Y-24621500D02*
X35904500Y-24146500D01*
G75*
G02*
X36142000Y-23909000I237500J0D01*
G01*
X36742000Y-23909000D01*
G75*
G02*
X36979500Y-24146500I0J-237500D01*
G01*
X36979500Y-24621500D01*
G75*
G02*
X36742000Y-24859000I-237500J0D01*
G01*
X36142000Y-24859000D01*
G75*
G02*
X35904500Y-24621500I0J237500D01*
G01*
G37*
G36*
G01*
X34179500Y-24621500D02*
X34179500Y-24146500D01*
G75*
G02*
X34417000Y-23909000I237500J0D01*
G01*
X35017000Y-23909000D01*
G75*
G02*
X35254500Y-24146500I0J-237500D01*
G01*
X35254500Y-24621500D01*
G75*
G02*
X35017000Y-24859000I-237500J0D01*
G01*
X34417000Y-24859000D01*
G75*
G02*
X34179500Y-24621500I0J237500D01*
G01*
G37*
G36*
G01*
X16065700Y-52945500D02*
X16065700Y-52470500D01*
G75*
G02*
X16303200Y-52233000I237500J0D01*
G01*
X16903200Y-52233000D01*
G75*
G02*
X17140700Y-52470500I0J-237500D01*
G01*
X17140700Y-52945500D01*
G75*
G02*
X16903200Y-53183000I-237500J0D01*
G01*
X16303200Y-53183000D01*
G75*
G02*
X16065700Y-52945500I0J237500D01*
G01*
G37*
G36*
G01*
X14340700Y-52945500D02*
X14340700Y-52470500D01*
G75*
G02*
X14578200Y-52233000I237500J0D01*
G01*
X15178200Y-52233000D01*
G75*
G02*
X15415700Y-52470500I0J-237500D01*
G01*
X15415700Y-52945500D01*
G75*
G02*
X15178200Y-53183000I-237500J0D01*
G01*
X14578200Y-53183000D01*
G75*
G02*
X14340700Y-52945500I0J237500D01*
G01*
G37*
G36*
G01*
X32348500Y-14588500D02*
X32348500Y-14113500D01*
G75*
G02*
X32586000Y-13876000I237500J0D01*
G01*
X33186000Y-13876000D01*
G75*
G02*
X33423500Y-14113500I0J-237500D01*
G01*
X33423500Y-14588500D01*
G75*
G02*
X33186000Y-14826000I-237500J0D01*
G01*
X32586000Y-14826000D01*
G75*
G02*
X32348500Y-14588500I0J237500D01*
G01*
G37*
G36*
G01*
X30623500Y-14588500D02*
X30623500Y-14113500D01*
G75*
G02*
X30861000Y-13876000I237500J0D01*
G01*
X31461000Y-13876000D01*
G75*
G02*
X31698500Y-14113500I0J-237500D01*
G01*
X31698500Y-14588500D01*
G75*
G02*
X31461000Y-14826000I-237500J0D01*
G01*
X30861000Y-14826000D01*
G75*
G02*
X30623500Y-14588500I0J237500D01*
G01*
G37*
G36*
G01*
X50788900Y-17230100D02*
X50788900Y-16755100D01*
G75*
G02*
X51026400Y-16517600I237500J0D01*
G01*
X51626400Y-16517600D01*
G75*
G02*
X51863900Y-16755100I0J-237500D01*
G01*
X51863900Y-17230100D01*
G75*
G02*
X51626400Y-17467600I-237500J0D01*
G01*
X51026400Y-17467600D01*
G75*
G02*
X50788900Y-17230100I0J237500D01*
G01*
G37*
G36*
G01*
X49063900Y-17230100D02*
X49063900Y-16755100D01*
G75*
G02*
X49301400Y-16517600I237500J0D01*
G01*
X49901400Y-16517600D01*
G75*
G02*
X50138900Y-16755100I0J-237500D01*
G01*
X50138900Y-17230100D01*
G75*
G02*
X49901400Y-17467600I-237500J0D01*
G01*
X49301400Y-17467600D01*
G75*
G02*
X49063900Y-17230100I0J237500D01*
G01*
G37*
G36*
G01*
X38708900Y-16374100D02*
X38708900Y-16849100D01*
G75*
G02*
X38471400Y-17086600I-237500J0D01*
G01*
X37871400Y-17086600D01*
G75*
G02*
X37633900Y-16849100I0J237500D01*
G01*
X37633900Y-16374100D01*
G75*
G02*
X37871400Y-16136600I237500J0D01*
G01*
X38471400Y-16136600D01*
G75*
G02*
X38708900Y-16374100I0J-237500D01*
G01*
G37*
G36*
G01*
X40433900Y-16374100D02*
X40433900Y-16849100D01*
G75*
G02*
X40196400Y-17086600I-237500J0D01*
G01*
X39596400Y-17086600D01*
G75*
G02*
X39358900Y-16849100I0J237500D01*
G01*
X39358900Y-16374100D01*
G75*
G02*
X39596400Y-16136600I237500J0D01*
G01*
X40196400Y-16136600D01*
G75*
G02*
X40433900Y-16374100I0J-237500D01*
G01*
G37*
G36*
G01*
X46721200Y-21610200D02*
X47196200Y-21610200D01*
G75*
G02*
X47433700Y-21847700I0J-237500D01*
G01*
X47433700Y-22447700D01*
G75*
G02*
X47196200Y-22685200I-237500J0D01*
G01*
X46721200Y-22685200D01*
G75*
G02*
X46483700Y-22447700I0J237500D01*
G01*
X46483700Y-21847700D01*
G75*
G02*
X46721200Y-21610200I237500J0D01*
G01*
G37*
G36*
G01*
X46721200Y-19885200D02*
X47196200Y-19885200D01*
G75*
G02*
X47433700Y-20122700I0J-237500D01*
G01*
X47433700Y-20722700D01*
G75*
G02*
X47196200Y-20960200I-237500J0D01*
G01*
X46721200Y-20960200D01*
G75*
G02*
X46483700Y-20722700I0J237500D01*
G01*
X46483700Y-20122700D01*
G75*
G02*
X46721200Y-19885200I237500J0D01*
G01*
G37*
G36*
G01*
X42203700Y-20913100D02*
X42203700Y-20438100D01*
G75*
G02*
X42441200Y-20200600I237500J0D01*
G01*
X43041200Y-20200600D01*
G75*
G02*
X43278700Y-20438100I0J-237500D01*
G01*
X43278700Y-20913100D01*
G75*
G02*
X43041200Y-21150600I-237500J0D01*
G01*
X42441200Y-21150600D01*
G75*
G02*
X42203700Y-20913100I0J237500D01*
G01*
G37*
G36*
G01*
X40478700Y-20913100D02*
X40478700Y-20438100D01*
G75*
G02*
X40716200Y-20200600I237500J0D01*
G01*
X41316200Y-20200600D01*
G75*
G02*
X41553700Y-20438100I0J-237500D01*
G01*
X41553700Y-20913100D01*
G75*
G02*
X41316200Y-21150600I-237500J0D01*
G01*
X40716200Y-21150600D01*
G75*
G02*
X40478700Y-20913100I0J237500D01*
G01*
G37*
G36*
G01*
X47183500Y-13327500D02*
X46708500Y-13327500D01*
G75*
G02*
X46471000Y-13090000I0J237500D01*
G01*
X46471000Y-12490000D01*
G75*
G02*
X46708500Y-12252500I237500J0D01*
G01*
X47183500Y-12252500D01*
G75*
G02*
X47421000Y-12490000I0J-237500D01*
G01*
X47421000Y-13090000D01*
G75*
G02*
X47183500Y-13327500I-237500J0D01*
G01*
G37*
G36*
G01*
X47183500Y-15052500D02*
X46708500Y-15052500D01*
G75*
G02*
X46471000Y-14815000I0J237500D01*
G01*
X46471000Y-14215000D01*
G75*
G02*
X46708500Y-13977500I237500J0D01*
G01*
X47183500Y-13977500D01*
G75*
G02*
X47421000Y-14215000I0J-237500D01*
G01*
X47421000Y-14815000D01*
G75*
G02*
X47183500Y-15052500I-237500J0D01*
G01*
G37*
G36*
G01*
X11872400Y-7514300D02*
X12347400Y-7514300D01*
G75*
G02*
X12584900Y-7751800I0J-237500D01*
G01*
X12584900Y-8351800D01*
G75*
G02*
X12347400Y-8589300I-237500J0D01*
G01*
X11872400Y-8589300D01*
G75*
G02*
X11634900Y-8351800I0J237500D01*
G01*
X11634900Y-7751800D01*
G75*
G02*
X11872400Y-7514300I237500J0D01*
G01*
G37*
G36*
G01*
X11872400Y-5789300D02*
X12347400Y-5789300D01*
G75*
G02*
X12584900Y-6026800I0J-237500D01*
G01*
X12584900Y-6626800D01*
G75*
G02*
X12347400Y-6864300I-237500J0D01*
G01*
X11872400Y-6864300D01*
G75*
G02*
X11634900Y-6626800I0J237500D01*
G01*
X11634900Y-6026800D01*
G75*
G02*
X11872400Y-5789300I237500J0D01*
G01*
G37*
G36*
G01*
X16763300Y-10684500D02*
X16763300Y-11159500D01*
G75*
G02*
X16525800Y-11397000I-237500J0D01*
G01*
X15925800Y-11397000D01*
G75*
G02*
X15688300Y-11159500I0J237500D01*
G01*
X15688300Y-10684500D01*
G75*
G02*
X15925800Y-10447000I237500J0D01*
G01*
X16525800Y-10447000D01*
G75*
G02*
X16763300Y-10684500I0J-237500D01*
G01*
G37*
G36*
G01*
X18488300Y-10684500D02*
X18488300Y-11159500D01*
G75*
G02*
X18250800Y-11397000I-237500J0D01*
G01*
X17650800Y-11397000D01*
G75*
G02*
X17413300Y-11159500I0J237500D01*
G01*
X17413300Y-10684500D01*
G75*
G02*
X17650800Y-10447000I237500J0D01*
G01*
X18250800Y-10447000D01*
G75*
G02*
X18488300Y-10684500I0J-237500D01*
G01*
G37*
G36*
G01*
X36395000Y-23050750D02*
X36395000Y-22288250D01*
G75*
G02*
X36613750Y-22069500I218750J0D01*
G01*
X37051250Y-22069500D01*
G75*
G02*
X37270000Y-22288250I0J-218750D01*
G01*
X37270000Y-23050750D01*
G75*
G02*
X37051250Y-23269500I-218750J0D01*
G01*
X36613750Y-23269500D01*
G75*
G02*
X36395000Y-23050750I0J218750D01*
G01*
G37*
G36*
G01*
X34270000Y-23050750D02*
X34270000Y-22288250D01*
G75*
G02*
X34488750Y-22069500I218750J0D01*
G01*
X34926250Y-22069500D01*
G75*
G02*
X35145000Y-22288250I0J-218750D01*
G01*
X35145000Y-23050750D01*
G75*
G02*
X34926250Y-23269500I-218750J0D01*
G01*
X34488750Y-23269500D01*
G75*
G02*
X34270000Y-23050750I0J218750D01*
G01*
G37*
D10*
X32766500Y-22675000D03*
X32766500Y-24575000D03*
X30566500Y-24575000D03*
X30566500Y-23625000D03*
X30566500Y-22675000D03*
D11*
X14157900Y-8051800D03*
X16157900Y-7101800D03*
X16157900Y-9001800D03*
X21981100Y-7188200D03*
X23981100Y-6238200D03*
X23981100Y-8138200D03*
X21600100Y-16967200D03*
X23600100Y-16017200D03*
X23600100Y-17917200D03*
X13903900Y-17907000D03*
X15903900Y-16957000D03*
X15903900Y-18857000D03*
D12*
X15740700Y-46628000D03*
X16690700Y-48628000D03*
X14790700Y-48628000D03*
D13*
X24751300Y-51095800D03*
X30301300Y-55945800D03*
X30301300Y-51095800D03*
X24751300Y-55945800D03*
D14*
X24986300Y-44370800D03*
X27526300Y-44370800D03*
X30066300Y-44370800D03*
D15*
X9652000Y-14581600D03*
X9652000Y-17881600D03*
X9646100Y-11352800D03*
X9646100Y-8052800D03*
X19931700Y-44261500D03*
X19931700Y-40961500D03*
M02*
