M48
; DRILL file {KiCad 5.1.10-88a1d61d58~90~ubuntu20.04.1} date Sun Sep  5 17:22:44 2021
; FORMAT={-:-/ absolute / inch / decimal}
; #@! TF.CreationDate,2021-09-05T17:22:44+01:00
; #@! TF.GenerationSoftware,Kicad,Pcbnew,5.1.10-88a1d61d58~90~ubuntu20.04.1
FMAT,2
INCH
T1C0.0157
T2C0.0394
T3C0.0472
T4C0.0512
T5C0.1299
%
G90
G05
T1
X0.08Y-1.36
X0.08Y-1.44
X0.08Y-1.52
X0.08Y-1.6
X0.12Y-1.32
X0.16Y-1.6
X0.2Y-1.32
X0.24Y-1.6
X0.28Y-1.32
X0.32Y-1.6
X0.36Y-1.32
X0.4Y-1.6
X0.44Y-1.32
X0.4505Y-1.9145
X0.48Y-1.6
X0.52Y-1.32
X0.56Y-1.6
X0.6Y-1.32
X0.6261Y-0.5974
X0.6361Y-0.2126
X0.64Y-1.32
X0.7628Y-1.826
X0.8Y-1.32
X0.84Y-1.32
X0.92Y-1.32
X1.0Y-1.32
X1.1908Y-0.456
X1.28Y-1.64
X1.2947Y-0.6257
X1.36Y-1.3
X1.36Y-1.64
X1.3816Y-1.7469
X1.44Y-1.3
X1.44Y-1.64
X1.52Y-1.3
X1.52Y-1.64
X1.5338Y-0.915
X1.6Y-1.3
X1.6Y-1.64
X1.68Y-1.3
X1.68Y-1.64
X1.683Y-0.527
X1.747Y-0.476
X1.76Y-1.3
X1.76Y-1.64
X1.84Y-1.3
X1.84Y-1.64
X1.92Y-1.3
X1.92Y-1.64
X1.9265Y-0.5725
X2.0Y-1.3
X2.0Y-1.64
X2.08Y-1.3
X2.08Y-1.64
X2.16Y-1.3
X2.16Y-1.64
X2.234Y-0.374
X2.24Y-1.3
X2.24Y-1.64
X2.32Y-1.64
X2.4Y-1.64
X2.46Y-1.32
X2.46Y-1.4
X2.46Y-1.48
X2.46Y-1.56
X2.48Y-1.64
T2
X0.1807Y-0.7037
X0.1807Y-0.8021
X0.1818Y-0.3166
X0.1818Y-0.415
X0.4278Y-0.089
X0.5278Y-0.089
X0.6278Y-0.089
X0.7278Y-0.089
X0.8278Y-0.089
X0.9938Y-0.088
X1.0938Y-0.088
X1.1938Y-0.088
X1.2938Y-0.088
X1.3938Y-0.088
X1.4938Y-0.088
X1.5938Y-0.088
X1.6938Y-0.088
T3
X1.92Y-0.217
X2.0578Y-0.217
X2.3292Y-0.1298
X2.3292Y-0.2676
X2.3317Y-0.4723
X2.3317Y-0.6101
T4
X0.2018Y-1.232
X0.2018Y-1.4289
X2.3127Y-1.2313
X2.3127Y-1.4281
T5
X0.4Y-2.25
X0.432Y-0.939
X2.35Y-0.874
X2.35Y-2.25
T0
M30
