G04 #@! TF.GenerationSoftware,KiCad,Pcbnew,5.1.10-88a1d61d58~90~ubuntu20.04.1*
G04 #@! TF.CreationDate,2021-09-05T17:22:48+01:00*
G04 #@! TF.ProjectId,hl2_extpamon,686c325f-6578-4747-9061-6d6f6e2e6b69,1*
G04 #@! TF.SameCoordinates,PX59a5380PY35d55f4*
G04 #@! TF.FileFunction,Soldermask,Bot*
G04 #@! TF.FilePolarity,Negative*
%FSLAX46Y46*%
G04 Gerber Fmt 4.6, Leading zero omitted, Abs format (unit mm)*
G04 Created by KiCad (PCBNEW 5.1.10-88a1d61d58~90~ubuntu20.04.1) date 2021-09-05 17:22:48*
%MOMM*%
%LPD*%
G01*
G04 APERTURE LIST*
%ADD10C,5.700000*%
%ADD11O,2.100000X2.100000*%
%ADD12O,2.400000X2.100000*%
%ADD13C,3.000000*%
%ADD14C,2.800000*%
%ADD15C,1.000000*%
%ADD16C,0.100000*%
G04 APERTURE END LIST*
D10*
X59690000Y-57150000D03*
X10160000Y-57150000D03*
X10972800Y-23850600D03*
X59690000Y-22199600D03*
D11*
X10865300Y-2260600D03*
X13405300Y-2260600D03*
X15945300Y-2260600D03*
X18485300Y-2260600D03*
G36*
G01*
X20175300Y-1210600D02*
X21875300Y-1210600D01*
G75*
G02*
X22075300Y-1410600I0J-200000D01*
G01*
X22075300Y-3110600D01*
G75*
G02*
X21875300Y-3310600I-200000J0D01*
G01*
X20175300Y-3310600D01*
G75*
G02*
X19975300Y-3110600I0J200000D01*
G01*
X19975300Y-1410600D01*
G75*
G02*
X20175300Y-1210600I200000J0D01*
G01*
G37*
X43021700Y-2235200D03*
X40481700Y-2235200D03*
X37941700Y-2235200D03*
X35401700Y-2235200D03*
X32861700Y-2235200D03*
X30321700Y-2235200D03*
X27781700Y-2235200D03*
G36*
G01*
X26091700Y-3285200D02*
X24391700Y-3285200D01*
G75*
G02*
X24191700Y-3085200I0J200000D01*
G01*
X24191700Y-1385200D01*
G75*
G02*
X24391700Y-1185200I200000J0D01*
G01*
X26091700Y-1185200D01*
G75*
G02*
X26291700Y-1385200I0J-200000D01*
G01*
X26291700Y-3085200D01*
G75*
G02*
X26091700Y-3285200I-200000J0D01*
G01*
G37*
D12*
X4590100Y-20373800D03*
G36*
G01*
X3698923Y-16823800D02*
X5481277Y-16823800D01*
G75*
G02*
X5790100Y-17132623I0J-308823D01*
G01*
X5790100Y-18614977D01*
G75*
G02*
X5481277Y-18923800I-308823J0D01*
G01*
X3698923Y-18923800D01*
G75*
G02*
X3390100Y-18614977I0J308823D01*
G01*
X3390100Y-17132623D01*
G75*
G02*
X3698923Y-16823800I308823J0D01*
G01*
G37*
D13*
X5124900Y-36292800D03*
G36*
G01*
X3824900Y-29792800D02*
X6424900Y-29792800D01*
G75*
G02*
X6624900Y-29992800I0J-200000D01*
G01*
X6624900Y-32592800D01*
G75*
G02*
X6424900Y-32792800I-200000J0D01*
G01*
X3824900Y-32792800D01*
G75*
G02*
X3624900Y-32592800I0J200000D01*
G01*
X3624900Y-29992800D01*
G75*
G02*
X3824900Y-29792800I200000J0D01*
G01*
G37*
D12*
X4616900Y-10541000D03*
G36*
G01*
X3725723Y-6991000D02*
X5508077Y-6991000D01*
G75*
G02*
X5816900Y-7299823I0J-308823D01*
G01*
X5816900Y-8782177D01*
G75*
G02*
X5508077Y-9091000I-308823J0D01*
G01*
X3725723Y-9091000D01*
G75*
G02*
X3416900Y-8782177I0J308823D01*
G01*
X3416900Y-7299823D01*
G75*
G02*
X3725723Y-6991000I308823J0D01*
G01*
G37*
D14*
X59162000Y-3297500D03*
G36*
G01*
X60362000Y-8197500D02*
X57962000Y-8197500D01*
G75*
G02*
X57762000Y-7997500I0J200000D01*
G01*
X57762000Y-5597500D01*
G75*
G02*
X57962000Y-5397500I200000J0D01*
G01*
X60362000Y-5397500D01*
G75*
G02*
X60562000Y-5597500I0J-200000D01*
G01*
X60562000Y-7997500D01*
G75*
G02*
X60362000Y-8197500I-200000J0D01*
G01*
G37*
X59225500Y-11997000D03*
G36*
G01*
X60425500Y-16897000D02*
X58025500Y-16897000D01*
G75*
G02*
X57825500Y-16697000I0J200000D01*
G01*
X57825500Y-14297000D01*
G75*
G02*
X58025500Y-14097000I200000J0D01*
G01*
X60425500Y-14097000D01*
G75*
G02*
X60625500Y-14297000I0J-200000D01*
G01*
X60625500Y-16697000D01*
G75*
G02*
X60425500Y-16897000I-200000J0D01*
G01*
G37*
D13*
X58742900Y-31274200D03*
G36*
G01*
X60042900Y-37774200D02*
X57442900Y-37774200D01*
G75*
G02*
X57242900Y-37574200I0J200000D01*
G01*
X57242900Y-34974200D01*
G75*
G02*
X57442900Y-34774200I200000J0D01*
G01*
X60042900Y-34774200D01*
G75*
G02*
X60242900Y-34974200I0J-200000D01*
G01*
X60242900Y-37574200D01*
G75*
G02*
X60042900Y-37774200I-200000J0D01*
G01*
G37*
D14*
X48767300Y-5511800D03*
G36*
G01*
X53667300Y-4311800D02*
X53667300Y-6711800D01*
G75*
G02*
X53467300Y-6911800I-200000J0D01*
G01*
X51067300Y-6911800D01*
G75*
G02*
X50867300Y-6711800I0J200000D01*
G01*
X50867300Y-4311800D01*
G75*
G02*
X51067300Y-4111800I200000J0D01*
G01*
X53467300Y-4111800D01*
G75*
G02*
X53667300Y-4311800I0J-200000D01*
G01*
G37*
D15*
X32512000Y-41656000D03*
X34544000Y-41656000D03*
X21336000Y-33528000D03*
X15240000Y-33528000D03*
X23368000Y-33528000D03*
X25400000Y-33528000D03*
X9144000Y-33528000D03*
X7112000Y-33528000D03*
X3048000Y-33528000D03*
X5080000Y-33528000D03*
X11176000Y-33528000D03*
X13208000Y-33528000D03*
X10160000Y-40640000D03*
X8128000Y-40640000D03*
X4064000Y-40640000D03*
X6096000Y-40640000D03*
X12192000Y-40640000D03*
X14224000Y-40640000D03*
X2032000Y-38608000D03*
X2032000Y-40640000D03*
X2032000Y-36576000D03*
X2032000Y-34544000D03*
X16256000Y-33528000D03*
X20320000Y-33528000D03*
X38608000Y-41656000D03*
X36576000Y-41656000D03*
X44704000Y-41656000D03*
X46736000Y-41656000D03*
X42672000Y-41656000D03*
X40640000Y-41656000D03*
X52832000Y-41656000D03*
X60960000Y-41656000D03*
X54864000Y-41656000D03*
X56896000Y-41656000D03*
X58928000Y-41656000D03*
X62992000Y-41656000D03*
X50800000Y-41656000D03*
X48768000Y-41656000D03*
X38608000Y-33020000D03*
X54864000Y-33020000D03*
X46736000Y-33020000D03*
X40640000Y-33020000D03*
X42672000Y-33020000D03*
X44704000Y-33020000D03*
X50800000Y-33020000D03*
X56896000Y-33020000D03*
X48768000Y-33020000D03*
X36576000Y-33020000D03*
X52832000Y-33020000D03*
X34544000Y-33020000D03*
X62484000Y-39624000D03*
X62484000Y-37592000D03*
X62484000Y-35560000D03*
X62484000Y-33528000D03*
X11443000Y-48628000D03*
X56743600Y-9499600D03*
X19374300Y-46380400D03*
X35093900Y-44370800D03*
X16157900Y-5400800D03*
X15903900Y-15173200D03*
X38957700Y-23241000D03*
X30245500Y-11582400D03*
X32886000Y-15893400D03*
X48933100Y-14541500D03*
X44373800Y-12090400D03*
X42748200Y-13385800D03*
D16*
G36*
X20729510Y-33241650D02*
G01*
X20741033Y-33255691D01*
X20759670Y-33270986D01*
X20780934Y-33282351D01*
X20804009Y-33289351D01*
X20828000Y-33291714D01*
X20851991Y-33289351D01*
X20875066Y-33282351D01*
X20896330Y-33270986D01*
X20914967Y-33255691D01*
X20926490Y-33241650D01*
X20928362Y-33240946D01*
X20929908Y-33242215D01*
X20929699Y-33244030D01*
X20896812Y-33293249D01*
X20859454Y-33383440D01*
X20840408Y-33479190D01*
X20840408Y-33576810D01*
X20859454Y-33672560D01*
X20896812Y-33762751D01*
X20929699Y-33811970D01*
X20929830Y-33813966D01*
X20928167Y-33815077D01*
X20926490Y-33814350D01*
X20914967Y-33800309D01*
X20896330Y-33785014D01*
X20875066Y-33773649D01*
X20851991Y-33766649D01*
X20828000Y-33764286D01*
X20804009Y-33766649D01*
X20780934Y-33773649D01*
X20759670Y-33785014D01*
X20741033Y-33800309D01*
X20729510Y-33814350D01*
X20727638Y-33815054D01*
X20726092Y-33813785D01*
X20726301Y-33811970D01*
X20759188Y-33762751D01*
X20796546Y-33672560D01*
X20815592Y-33576810D01*
X20815592Y-33479190D01*
X20796546Y-33383440D01*
X20759188Y-33293249D01*
X20726301Y-33244030D01*
X20726170Y-33242034D01*
X20727833Y-33240923D01*
X20729510Y-33241650D01*
G37*
G36*
X15649510Y-33241650D02*
G01*
X15661033Y-33255691D01*
X15679670Y-33270986D01*
X15700934Y-33282351D01*
X15724009Y-33289351D01*
X15748000Y-33291714D01*
X15771991Y-33289351D01*
X15795066Y-33282351D01*
X15816330Y-33270986D01*
X15834967Y-33255691D01*
X15846490Y-33241650D01*
X15848362Y-33240946D01*
X15849908Y-33242215D01*
X15849699Y-33244030D01*
X15816812Y-33293249D01*
X15779454Y-33383440D01*
X15760408Y-33479190D01*
X15760408Y-33576810D01*
X15779454Y-33672560D01*
X15816812Y-33762751D01*
X15849699Y-33811970D01*
X15849830Y-33813966D01*
X15848167Y-33815077D01*
X15846490Y-33814350D01*
X15834967Y-33800309D01*
X15816330Y-33785014D01*
X15795066Y-33773649D01*
X15771991Y-33766649D01*
X15748000Y-33764286D01*
X15724009Y-33766649D01*
X15700934Y-33773649D01*
X15679670Y-33785014D01*
X15661033Y-33800309D01*
X15649510Y-33814350D01*
X15647638Y-33815054D01*
X15646092Y-33813785D01*
X15646301Y-33811970D01*
X15679188Y-33762751D01*
X15716546Y-33672560D01*
X15735592Y-33576810D01*
X15735592Y-33479190D01*
X15716546Y-33383440D01*
X15679188Y-33293249D01*
X15646301Y-33244030D01*
X15646170Y-33242034D01*
X15647833Y-33240923D01*
X15649510Y-33241650D01*
G37*
G36*
X3392090Y-18614781D02*
G01*
X3398004Y-18674830D01*
X3415465Y-18732389D01*
X3443817Y-18785434D01*
X3481973Y-18831927D01*
X3528466Y-18870083D01*
X3581511Y-18898435D01*
X3639070Y-18915896D01*
X3699119Y-18921810D01*
X3700745Y-18922975D01*
X3700549Y-18924965D01*
X3698923Y-18925800D01*
X3616826Y-18925800D01*
X3616630Y-18925790D01*
X3567574Y-18920959D01*
X3567189Y-18920883D01*
X3525924Y-18908365D01*
X3525562Y-18908215D01*
X3487530Y-18887886D01*
X3487204Y-18887668D01*
X3453867Y-18860310D01*
X3453590Y-18860033D01*
X3426232Y-18826696D01*
X3426014Y-18826370D01*
X3405685Y-18788338D01*
X3405535Y-18787976D01*
X3393017Y-18746711D01*
X3392941Y-18746326D01*
X3388110Y-18697270D01*
X3388100Y-18697074D01*
X3388100Y-18614977D01*
X3389100Y-18613245D01*
X3391100Y-18613245D01*
X3392090Y-18614781D01*
G37*
G36*
X5791265Y-18613351D02*
G01*
X5792100Y-18614977D01*
X5792100Y-18697074D01*
X5792090Y-18697270D01*
X5787259Y-18746326D01*
X5787183Y-18746711D01*
X5774665Y-18787976D01*
X5774515Y-18788338D01*
X5754186Y-18826370D01*
X5753968Y-18826696D01*
X5726610Y-18860033D01*
X5726333Y-18860310D01*
X5692996Y-18887668D01*
X5692670Y-18887886D01*
X5654638Y-18908215D01*
X5654276Y-18908365D01*
X5613011Y-18920883D01*
X5612626Y-18920959D01*
X5563570Y-18925790D01*
X5563374Y-18925800D01*
X5481277Y-18925800D01*
X5479545Y-18924800D01*
X5479545Y-18922800D01*
X5481081Y-18921810D01*
X5541130Y-18915896D01*
X5598689Y-18898435D01*
X5651734Y-18870083D01*
X5698227Y-18831927D01*
X5736383Y-18785434D01*
X5764735Y-18732389D01*
X5782196Y-18674830D01*
X5788110Y-18614781D01*
X5789275Y-18613155D01*
X5791265Y-18613351D01*
G37*
G36*
X3700655Y-16822800D02*
G01*
X3700655Y-16824800D01*
X3699119Y-16825790D01*
X3639070Y-16831704D01*
X3581511Y-16849165D01*
X3528466Y-16877517D01*
X3481973Y-16915673D01*
X3443817Y-16962166D01*
X3415465Y-17015211D01*
X3398004Y-17072770D01*
X3392090Y-17132819D01*
X3390925Y-17134445D01*
X3388935Y-17134249D01*
X3388100Y-17132623D01*
X3388100Y-17050526D01*
X3388110Y-17050330D01*
X3392941Y-17001274D01*
X3393017Y-17000889D01*
X3405535Y-16959624D01*
X3405685Y-16959262D01*
X3426014Y-16921230D01*
X3426232Y-16920904D01*
X3453590Y-16887567D01*
X3453867Y-16887290D01*
X3487204Y-16859932D01*
X3487530Y-16859714D01*
X3525562Y-16839385D01*
X3525924Y-16839235D01*
X3567189Y-16826717D01*
X3567574Y-16826641D01*
X3616630Y-16821810D01*
X3616826Y-16821800D01*
X3698923Y-16821800D01*
X3700655Y-16822800D01*
G37*
G36*
X5563570Y-16821810D02*
G01*
X5612626Y-16826641D01*
X5613011Y-16826717D01*
X5654276Y-16839235D01*
X5654638Y-16839385D01*
X5692670Y-16859714D01*
X5692996Y-16859932D01*
X5726333Y-16887290D01*
X5726610Y-16887567D01*
X5753968Y-16920904D01*
X5754186Y-16921230D01*
X5774515Y-16959262D01*
X5774665Y-16959624D01*
X5787183Y-17000889D01*
X5787259Y-17001274D01*
X5792090Y-17050330D01*
X5792100Y-17050526D01*
X5792100Y-17132623D01*
X5791100Y-17134355D01*
X5789100Y-17134355D01*
X5788110Y-17132819D01*
X5782196Y-17072770D01*
X5764735Y-17015211D01*
X5736383Y-16962166D01*
X5698227Y-16915673D01*
X5651734Y-16877517D01*
X5598689Y-16849165D01*
X5541130Y-16831704D01*
X5481081Y-16825790D01*
X5479455Y-16824625D01*
X5479651Y-16822635D01*
X5481277Y-16821800D01*
X5563374Y-16821800D01*
X5563570Y-16821810D01*
G37*
G36*
X5818065Y-8780551D02*
G01*
X5818900Y-8782177D01*
X5818900Y-8864274D01*
X5818890Y-8864470D01*
X5814059Y-8913526D01*
X5813983Y-8913911D01*
X5801465Y-8955176D01*
X5801315Y-8955538D01*
X5780986Y-8993570D01*
X5780768Y-8993896D01*
X5753410Y-9027233D01*
X5753133Y-9027510D01*
X5719796Y-9054868D01*
X5719470Y-9055086D01*
X5681438Y-9075415D01*
X5681076Y-9075565D01*
X5639811Y-9088083D01*
X5639426Y-9088159D01*
X5590370Y-9092990D01*
X5590174Y-9093000D01*
X5508077Y-9093000D01*
X5506345Y-9092000D01*
X5506345Y-9090000D01*
X5507881Y-9089010D01*
X5567930Y-9083096D01*
X5625489Y-9065635D01*
X5678534Y-9037283D01*
X5725027Y-8999127D01*
X5763183Y-8952634D01*
X5791535Y-8899589D01*
X5808996Y-8842030D01*
X5814910Y-8781981D01*
X5816075Y-8780355D01*
X5818065Y-8780551D01*
G37*
G36*
X3418890Y-8781981D02*
G01*
X3424804Y-8842030D01*
X3442265Y-8899589D01*
X3470617Y-8952634D01*
X3508773Y-8999127D01*
X3555266Y-9037283D01*
X3608311Y-9065635D01*
X3665870Y-9083096D01*
X3725919Y-9089010D01*
X3727545Y-9090175D01*
X3727349Y-9092165D01*
X3725723Y-9093000D01*
X3643626Y-9093000D01*
X3643430Y-9092990D01*
X3594374Y-9088159D01*
X3593989Y-9088083D01*
X3552724Y-9075565D01*
X3552362Y-9075415D01*
X3514330Y-9055086D01*
X3514004Y-9054868D01*
X3480667Y-9027510D01*
X3480390Y-9027233D01*
X3453032Y-8993896D01*
X3452814Y-8993570D01*
X3432485Y-8955538D01*
X3432335Y-8955176D01*
X3419817Y-8913911D01*
X3419741Y-8913526D01*
X3414910Y-8864470D01*
X3414900Y-8864274D01*
X3414900Y-8782177D01*
X3415900Y-8780445D01*
X3417900Y-8780445D01*
X3418890Y-8781981D01*
G37*
G36*
X3727455Y-6990000D02*
G01*
X3727455Y-6992000D01*
X3725919Y-6992990D01*
X3665870Y-6998904D01*
X3608311Y-7016365D01*
X3555266Y-7044717D01*
X3508773Y-7082873D01*
X3470617Y-7129366D01*
X3442265Y-7182411D01*
X3424804Y-7239970D01*
X3418890Y-7300019D01*
X3417725Y-7301645D01*
X3415735Y-7301449D01*
X3414900Y-7299823D01*
X3414900Y-7217726D01*
X3414910Y-7217530D01*
X3419741Y-7168474D01*
X3419817Y-7168089D01*
X3432335Y-7126824D01*
X3432485Y-7126462D01*
X3452814Y-7088430D01*
X3453032Y-7088104D01*
X3480390Y-7054767D01*
X3480667Y-7054490D01*
X3514004Y-7027132D01*
X3514330Y-7026914D01*
X3552362Y-7006585D01*
X3552724Y-7006435D01*
X3593989Y-6993917D01*
X3594374Y-6993841D01*
X3643430Y-6989010D01*
X3643626Y-6989000D01*
X3725723Y-6989000D01*
X3727455Y-6990000D01*
G37*
G36*
X5590370Y-6989010D02*
G01*
X5639426Y-6993841D01*
X5639811Y-6993917D01*
X5681076Y-7006435D01*
X5681438Y-7006585D01*
X5719470Y-7026914D01*
X5719796Y-7027132D01*
X5753133Y-7054490D01*
X5753410Y-7054767D01*
X5780768Y-7088104D01*
X5780986Y-7088430D01*
X5801315Y-7126462D01*
X5801465Y-7126824D01*
X5813983Y-7168089D01*
X5814059Y-7168474D01*
X5818890Y-7217530D01*
X5818900Y-7217726D01*
X5818900Y-7299823D01*
X5817900Y-7301555D01*
X5815900Y-7301555D01*
X5814910Y-7300019D01*
X5808996Y-7239970D01*
X5791535Y-7182411D01*
X5763183Y-7129366D01*
X5725027Y-7082873D01*
X5678534Y-7044717D01*
X5625489Y-7016365D01*
X5567930Y-6998904D01*
X5507881Y-6992990D01*
X5506255Y-6991825D01*
X5506451Y-6989835D01*
X5508077Y-6989000D01*
X5590174Y-6989000D01*
X5590370Y-6989010D01*
G37*
M02*
